# xmcd
#
# Track frame offsets: 
#        150
#        12725
#        35230
#        49950
#        63758
#        89990
#        101553
#        127655
#        144055
#        168358
#        201120
#
# Disc length: 3108 seconds
#
# Revision: 3
# Processed by: cddbd v1.5.2PL0 Copyright (c) Steve Scherf et al.
# Submitted via: ExactAudioCopy v0.99pb5
#
DISCID=980c220b
DTITLE=Gary Moore - Close As You Get
DYEAR=2007
DGENRE=Blues
TTITLE0=If The Devil Made Whiskey
TTITLE1=Trouble At Home
TTITLE2=Thirty Days
TTITLE3=Hard Times
TTITLE4=Have You Heard
TTITLE5=Eyesight To The Blind
TTITLE6=Evenin'
TTITLE7=Nowhere Fast
TTITLE8=Checkin' Up My Baby
TTITLE9=I Had A Dream
TTITLE10=Sundown
EXTD=
EXTT0=
EXTT1=
EXTT2=
EXTT3=
EXTT4=
EXTT5=
EXTT6=
EXTT7=
EXTT8=
EXTT9=
EXTT10=
PLAYORDER=
